<?xml version="1.0" encoding="utf-8"?>
<!-- Generated by IcoMoon.io -->
<!DOCTYPE svg PUBLIC "-//W3C//DTD SVG 1.1//EN" "http://www.w3.org/Graphics/SVG/1.1/DTD/svg11.dtd">
<svg version="1.1" xmlns="http://www.w3.org/2000/svg" xmlns:xlink="http://www.w3.org/1999/xlink" width="300" height="300" viewBox="0 0 300 300">
<g>
</g>
	<path d="M150 300c82.843 0 150-67.157 150-150s-67.157-150-150-150-150 67.157-150 150 67.157 150 150 150zM150 28.125c67.31 0 121.875 54.565 121.875 121.875s-54.565 121.875-121.875 121.875-121.875-54.565-121.875-121.875 54.565-121.875 121.875-121.875zM218.479 176.256l6.588 22.493-128.030 37.501-6.588-22.493zM75 93.75c0-10.355 8.395-18.75 18.75-18.75s18.75 8.395 18.75 18.75c0 10.355-8.395 18.75-18.75 18.75-10.355 0-18.75-8.395-18.75-18.75zM187.5 93.75c0-10.355 8.395-18.75 18.75-18.75s18.75 8.395 18.75 18.75c0 10.355-8.395 18.75-18.75 18.75-10.355 0-18.75-8.395-18.75-18.75z" fill="#ffffff"></path>
</svg>
