<?xml version="1.0" encoding="utf-8"?>
<!-- Generated by IcoMoon.io -->
<!DOCTYPE svg PUBLIC "-//W3C//DTD SVG 1.1//EN" "http://www.w3.org/Graphics/SVG/1.1/DTD/svg11.dtd">
<svg version="1.1" xmlns="http://www.w3.org/2000/svg" xmlns:xlink="http://www.w3.org/1999/xlink" width="300" height="300" viewBox="0 0 300 300">
<g>
</g>
	<path d="M150 300c82.843 0 150-67.157 150-150s-67.157-150-150-150-150 67.157-150 150 67.157 150 150 150zM150 28.125c67.31 0 121.875 54.565 121.875 121.875s-54.565 121.875-121.875 121.875-121.875-54.565-121.875-121.875 54.565-121.875 121.875-121.875zM150 175.418c33.97 0 66.278-9.025 93.75-24.879-4.27 52.277-44.862 93.211-93.75 93.211-48.887 0-89.479-40.978-93.75-93.253 27.472 15.853 59.78 24.921 93.75 24.921zM75 103.125c0-15.533 8.395-28.125 18.75-28.125s18.75 12.592 18.75 28.125c0 15.533-8.395 28.125-18.75 28.125-10.355 0-18.75-12.592-18.75-28.125zM187.5 103.125c0-15.533 8.395-28.125 18.75-28.125s18.75 12.592 18.75 28.125c0 15.533-8.395 28.125-18.75 28.125-10.355 0-18.75-12.592-18.75-28.125z" fill="#ffffff"></path>
</svg>
