<?xml version="1.0" encoding="utf-8"?>
<!-- Generated by IcoMoon.io -->
<!DOCTYPE svg PUBLIC "-//W3C//DTD SVG 1.1//EN" "http://www.w3.org/Graphics/SVG/1.1/DTD/svg11.dtd">
<svg version="1.1" xmlns="http://www.w3.org/2000/svg" xmlns:xlink="http://www.w3.org/1999/xlink" width="300" height="300" viewBox="0 0 300 300">
<g>
</g>
	<path d="M150 300c82.843 0 150-67.157 150-150s-67.157-150-150-150-150 67.157-150 150 67.157 150 150 150zM150 28.125c67.31 0 121.875 54.565 121.875 121.875s-54.565 121.875-121.875 121.875-121.875-54.565-121.875-121.875 54.565-121.875 121.875-121.875zM206.279 228.732c-11.477-19.086-32.386-31.857-56.279-31.857-23.893 0-44.802 12.771-56.279 31.857l-24.12-14.471c16.395-27.267 46.264-45.511 80.398-45.511 34.133 0 64.003 18.244 80.398 45.511l-24.12 14.471zM224.719 82.102c1.255 5.023-1.799 10.113-6.821 11.368-5.164 1.304-11.286 3.551-16.68 6.255 3.12 3.349 5.031 7.838 5.031 12.775 0 10.355-8.395 18.75-18.75 18.75-10.355 0-18.75-8.395-18.75-18.75 0-0.343 0.011-0.683 0.029-1.021 0.595-13.903 13.246-23.129 23.904-28.458 10.178-5.089 20.245-7.635 20.668-7.741 5.023-1.256 10.113 1.798 11.369 6.821zM75.281 82.102c1.256-5.023 6.346-8.078 11.369-6.821 0.424 0.106 10.49 2.652 20.668 7.741 10.658 5.33 23.309 14.556 23.904 28.458 0.018 0.338 0.029 0.678 0.029 1.021 0 10.355-8.395 18.75-18.75 18.75s-18.75-8.395-18.75-18.75c0-4.938 1.912-9.427 5.031-12.775-5.395-2.704-11.517-4.951-16.68-6.255-5.022-1.256-8.076-6.346-6.821-11.368z" fill="#ffffff"></path>
</svg>
